<?xml version="1.0" encoding="utf-8"?>
<!-- Generator: Adobe Illustrator 19.0.0, SVG Export Plug-In . SVG Version: 6.00 Build 0)  -->
<svg version="1.1" id="Layer_1" xmlns="http://www.w3.org/2000/svg" xmlns:xlink="http://www.w3.org/1999/xlink" x="0px" y="0px"
	 viewBox="0 0 629 443.7" style="enable-background:new 0 0 629 443.7;" xml:space="preserve">
<style type="text/css">
	.st0{fill:none;stroke:#327CB2;stroke-width:2;stroke-miterlimit:10;}
	.st1{fill:#1B597F;}
	.st2{fill:#347CB2;}
	.st3{fill:#24516D;}
	.st4{fill:#E5B3E4;}
	.st5{fill:none;stroke:#FFFFFF;stroke-width:2;stroke-miterlimit:10;}
	.st6{fill:#3E8FC1;}
	.st7{fill:#13405B;}
	.st8{opacity:0.46;}
	.st9{fill:#FFFFFF;}
	.st10{opacity:0.23;}
</style>
<g id="XMLID_1_">
</g>
<g id="XMLID_106_">
	<path id="XMLID_51_" class="st0" d="M57,218.1L425,5.7c8.4-4.9,22.2-4.9,30.6,0l145.2,83.8c7.6,4.4,7.6,11.5,0,15.9L232.8,317.8
		c-8.4,4.9-22.2,4.9-30.6,0L57,234C49.5,229.6,49.5,222.5,57,218.1z"/>
	<path id="XMLID_46_" class="st1" d="M629,189.8l-0.1-60.7l-68.5,15.9L458,85.8c-9.5-5.5-25.1-5.5-34.6,0L159.9,237.9L-0.1,275
		l0,60.6c0,3.3,2.2,6.5,6.5,9l164.5,95c5.2,3,12.1,4.3,18.9,4l0.1,0l0.1,0c5.7-0.2,11.3-1.5,15.6-4l417.1-240.8
		C626.9,196.3,629,193,629,189.8z"/>
	<path id="XMLID_44_" class="st2" d="M6.5,266.4L423.6,25.6c9.5-5.5,25.1-5.5,34.6,0l164.5,95c8.6,5,8.6,13,0,18L205.6,379.4
		c-9.5,5.5-25.1,5.5-34.6,0l-164.5-95C-2.2,279.4-2.2,271.4,6.5,266.4z"/>
	<path id="XMLID_69_" class="st3" d="M57,250.7L425,38.3c8.4-4.9,22.2-4.9,30.6,0l145.2,83.8c3.4,1.9,5.2,4.4,5.6,6.9
		c0.5-3.2-1.4-6.5-5.6-8.9L455.5,36.3c-8.4-4.9-22.2-4.9-30.6,0L57,248.7c-4.2,2.4-6.1,5.7-5.6,8.9C51.8,255.1,53.7,252.7,57,250.7z
		"/>
	<path id="XMLID_70_" class="st4" d="M57,264.6l145.2,83.8c8.4,4.9,22.2,4.9,30.6,0L600.7,136c3.4-1.9,5.2-4.4,5.6-6.9
		c-0.4-2.5-2.3-5-5.6-6.9L455.5,38.3c-8.4-4.9-22.2-4.9-30.6,0L57,250.7c-3.4,1.9-5.2,4.4-5.6,6.9C51.8,260.2,53.7,262.7,57,264.6z"
		/>
	<path id="XMLID_50_" class="st5" d="M57,217.1L425,4.7c8.4-4.9,22.2-4.9,30.6,0l145.2,83.8c7.6,4.4,7.6,11.5,0,15.9L232.8,316.8
		c-8.4,4.9-22.2,4.9-30.6,0L57,233C49.5,228.6,49.5,221.5,57,217.1z"/>
	<path id="XMLID_45_" class="st6" d="M142.1,329.8l-47.9-27.6c-4.4-2.5-12-2.2-17,0.7h0c-5,2.9-5.6,7.3-1.2,9.8l47.9,27.6
		c4.4,2.5,12,2.2,17-0.7l0,0C145.9,336.8,146.4,332.3,142.1,329.8z"/>
	<path id="XMLID_48_" class="st7" d="M112,383.2L66.7,357c-4.1-2.4-7.5-7.7-7.5-11.8l0,0c0-4.1,3.4-5.6,7.5-3.2l45.4,26.2
		c4.1,2.4,7.5,7.7,7.5,11.8l0,0C119.5,384.1,116.2,385.6,112,383.2z"/>
	<path id="XMLID_47_" class="st7" d="M546.5,220.1l45.4-26.2c4.1-2.4,7.5-7.7,7.5-11.8v0c0-4.1-3.4-5.6-7.5-3.2l-45.4,26.2
		c-4.1,2.4-7.5,7.7-7.5,11.8v0C539,221.1,542.3,222.5,546.5,220.1z"/>
	<path id="XMLID_49_" class="st7" d="M463.2,268.2l45.4-26.2c4.1-2.4,7.5-7.7,7.5-11.8v0c0-4.1-3.4-5.6-7.5-3.2l-45.4,26.2
		c-4.1,2.4-7.5,7.7-7.5,11.8v0C455.7,269.1,459.1,270.6,463.2,268.2z"/>
	<g id="XMLID_52_" class="st8">
		<path id="XMLID_53_" class="st9" d="M411.8,213.6l30-17.3V1.2c-6-0.2-12,1-16.6,3.6l-13.4,7.8V213.6z"/>
		<polygon id="XMLID_60_" class="st9" points="159.8,292.2 195.8,313 195.8,137.2 159.8,158 		"/>
		<path id="XMLID_61_" class="st9" d="M600.3,88.5l-26.5-15.7v47.2l26.9-15.7C608.2,100,607.9,92.9,600.3,88.5z"/>
		<polygon id="XMLID_62_" class="st9" points="549.8,59 459.8,7 459.8,185.9 549.8,133.9 		"/>
		<path id="XMLID_63_" class="st9" d="M87.8,199.5l-31.1,17.6c-7.6,4.4-7.3,11.5,0.3,15.9l30.8,17.6V199.5z"/>
		<path id="XMLID_64_" class="st9" d="M315.8,67.9l-84,48.5v201c0-0.2,0.8-0.4,1.2-0.6l82.8-47.8V67.9z"/>
	</g>
	<g id="XMLID_54_" class="st10">
		<path id="XMLID_65_" class="st9" d="M411.8,245.1l30-17.3V34.7c-6-0.2-11.7,0.9-16.3,3.4L411.8,46V245.1z"/>
		<polygon id="XMLID_59_" class="st9" points="159.8,323.9 195.8,344.6 195.8,170.7 159.8,191.5 		"/>
		<path id="XMLID_58_" class="st9" d="M600,121.7l-26.2-15.2v45.1l26.8-15.5c1.1-0.6,2.1-1.3,2.9-2.1c0.8-0.8,1.5-1.5,1.9-2.3
			c0.4-0.6,0.6-1.1,0.8-1.7c0.1-0.3,0.2-0.6,0.2-1c0,0,0-0.1,0-0.1c0-0.1,0-0.1,0-0.2c0-0.1,0-0.2-0.1-0.3c-0.1-0.3-0.2-0.6-0.2-0.8
			c-0.1-0.3-0.2-0.5-0.3-0.7c-0.1-0.1-0.1-0.3-0.2-0.5c-0.3-0.6-0.8-1.3-1.3-1.8C603.1,123.7,601.8,122.7,600,121.7z"/>
		<polygon id="XMLID_57_" class="st9" points="549.8,92.6 459.8,40.7 459.8,217.4 549.8,165.4 		"/>
		<path id="XMLID_56_" class="st9" d="M87.8,233l-29.9,17.3c-0.9,0.5-1.7,1-2.4,1.5c-0.5,0.4-1,0.8-1.4,1.2
			c-0.1,0.1-0.3,0.3-0.4,0.4c-0.1,0.1-0.2,0.2-0.2,0.3c-0.7,0.8-1.1,1.5-1.5,2.4c-0.1,0.3-0.2,0.6-0.3,0.9c0,0.1,0,0.2-0.1,0.2
			c0,0.1,0,0.1,0,0.2c0,0,0,0.1,0,0.2c0,0,0,0,0,0c0.1,1.1,0.6,2.3,1.5,3.4c0.9,1.3,2.3,2.5,4.1,3.5l30.8,17.7V233z"/>
		<path id="XMLID_55_" class="st9" d="M315.8,101.4l-84,48.5V349c0-0.2,0.8-0.4,1.2-0.6l82.8-47.8V101.4z"/>
	</g>
</g>
</svg>
